<svg width="900" height="1156" viewBox="0 0 900 1156" fill="none" xmlns="http://www.w3.org/2000/svg">
    <g opacity=".33">
        <path opacity=".16" d="M429.666 491.831c12.551 0 22.725-10.661 22.725-23.811s-10.174-23.81-22.725-23.81c-12.55 0-22.725 10.66-22.725 23.81 0 13.15 10.175 23.811 22.725 23.811zM373.756 333.243c19.946 0 36.116-16.942 36.116-37.841 0-20.9-16.17-37.842-36.116-37.842-19.947 0-36.116 16.942-36.116 37.842 0 20.899 16.169 37.841 36.116 37.841zM711.116 214.563c19.946 0 36.116-16.942 36.116-37.842 0-20.899-16.17-37.841-36.116-37.841-19.946 0-36.116 16.942-36.116 37.841 0 20.9 16.17 37.842 36.116 37.842zM-24.836 352.368c24.653 0 44.638-20.94 44.638-46.771s-19.985-46.771-44.638-46.771-44.639 20.94-44.639 46.771 19.986 46.771 44.639 46.771zM594.638 728.02c24.653 0 44.638-20.94 44.638-46.771s-19.985-46.771-44.638-46.771S550 655.418 550 681.249s19.985 46.771 44.638 46.771zM256.795 907.57c27.791 0 50.32-23.605 50.32-52.724 0-29.118-22.529-52.723-50.32-52.723s-50.319 23.605-50.319 52.723c0 29.119 22.528 52.724 50.319 52.724zM287.32 203.135c27.79 0 50.319-23.606 50.319-52.724 0-29.119-22.529-52.724-50.319-52.724-27.791 0-50.32 23.605-50.32 52.724 0 29.118 22.529 52.724 50.32 52.724z" fill="#fff"/>
        <path opacity=".16" fill-rule="evenodd" clip-rule="evenodd" d="m-184.867 670.382 174.481-75.823 43.285 26.305-177.022 131.312c-7.812 6.825-17.862 10.93-28.828 10.93-24.878 0-45.045-21.13-45.045-47.197 0-16.371 7.956-30.796 20.038-39.261l-.289-.452 2.988-1.299a43.638 43.638 0 0 1 10.392-4.515z" fill="url(#a)"/>
        <path opacity=".16" fill-rule="evenodd" clip-rule="evenodd" d="m-16.478 847.241 143.093-188.664 60.919 1.241L72.961 909.233c-4.481 12.066-12.86 22.623-24.513 29.391-26.493 15.387-59.876 5.357-74.561-22.402-9.224-17.435-8.878-37.718-.78-54.205l-.562-.303 2.446-3.224a56.788 56.788 0 0 1 8.531-11.249z" fill="url(#b)"/>
        <path opacity=".16" fill-rule="evenodd" clip-rule="evenodd" d="M465.793 60.885c2.682-7.653 7.842-14.402 15.107-18.798 16.477-9.967 37.545-4.052 47.058 13.212 5.975 10.843 5.97 23.584 1.058 34.032l.357.184-1.511 2.064a35.7 35.7 0 0 1-5.224 7.14l-87.894 120.132-38.266-.08 69.315-157.886z" fill="url(#c)"/>
        <path opacity=".16" fill-rule="evenodd" clip-rule="evenodd" d="m-147.492 431.256 165.146 22.7 21.986 40.086-190.47 18.503c-8.829 1.595-18.222.085-26.588-4.976-18.998-11.492-25.508-36.946-14.539-56.851 6.889-12.503 19.035-19.844 31.824-20.726l-.031-.478 2.82.388c3.29.015 6.599.459 9.852 1.354z" fill="url(#d)"/>
        <path opacity=".16" fill-rule="evenodd" clip-rule="evenodd" d="M735.836 807.873 634.379 726.38l.067-35.483 133.378 64.287c6.453 2.49 12.143 7.27 15.85 13.997 8.418 15.277 3.422 34.813-11.159 43.633-9.158 5.54-19.92 5.535-28.743.98l-.155.329-1.733-1.392a30.502 30.502 0 0 1-6.048-4.858z" fill="url(#e)"/>
        <path opacity=".16" fill-rule="evenodd" clip-rule="evenodd" d="M844.407 425.596c10.147-2.221 21.065-.874 30.932 4.623 22.399 12.479 30.903 41.621 18.993 65.091-7.481 14.741-21.235 23.738-35.982 25.299l.053.551-3.278-.329a43.646 43.646 0 0 1-11.428-1.147l-191.743-19.253L625 455.033l219.407-29.437z" fill="url(#f)"/>
        <path opacity=".16" fill-rule="evenodd" clip-rule="evenodd" d="M527.041 1095.09 393 772.497l43.288-81.439 228.3 325.682c11.801 14.33 19.066 32.91 19.406 53.31.771 46.34-34.452 84.56-78.675 85.37-27.776.51-52.495-13.86-67.231-36.1l-.755.54-2.283-5.49a85.535 85.535 0 0 1-8.009-19.28z" fill="url(#g)"/>
        <path opacity=".16" fill-rule="evenodd" clip-rule="evenodd" d="M-79.862 112.242C-90.49 100.382-97 84.422-97 66.871-97 30.256-68.671.573-33.726.573c25.627 0 47.696 15.963 57.643 38.917l.599-.42 109.446 276.497-35.266 63.708L-81.13 113.132l1.27-.89z" fill="url(#h)"/>
    </g>
    <defs>
        <linearGradient id="a" x1="3.544" y1="613.49" x2="-83.936" y2="715.716" gradientUnits="userSpaceOnUse">
            <stop stop-color="#fff" stop-opacity="0"/>
            <stop offset="1" stop-color="#fff"/>
        </linearGradient>
        <linearGradient id="b" x1="152.117" y1="670.123" x2="121.105" y2="833.963" gradientUnits="userSpaceOnUse">
            <stop stop-color="#fff" stop-opacity="0"/>
            <stop offset="1" stop-color="#fff"/>
        </linearGradient>
        <linearGradient id="c" x1="418.61" y1="211.892" x2="436.213" y2="108.622" gradientUnits="userSpaceOnUse">
            <stop stop-color="#fff" stop-opacity="0"/>
            <stop offset="1" stop-color="#fff"/>
        </linearGradient>
        <linearGradient id="d" x1="20.325" y1="474.849" x2="-88.832" y2="514.342" gradientUnits="userSpaceOnUse">
            <stop stop-color="#fff" stop-opacity="0"/>
            <stop offset="1" stop-color="#fff"/>
        </linearGradient>
        <linearGradient id="e" x1="640.256" y1="711.42" x2="727.9" y2="725.027" gradientUnits="userSpaceOnUse">
            <stop stop-color="#fff" stop-opacity="0"/>
            <stop offset="1" stop-color="#fff"/>
        </linearGradient>
        <linearGradient id="f" x1="648.062" y1="476.398" x2="772.819" y2="426.443" gradientUnits="userSpaceOnUse">
            <stop stop-color="#fff" stop-opacity="0"/>
            <stop offset="1" stop-color="#fff"/>
        </linearGradient>
        <linearGradient id="g" x1="424.687" y1="745.963" x2="613.94" y2="888.3" gradientUnits="userSpaceOnUse">
            <stop stop-color="#fff" stop-opacity="0"/>
            <stop offset="1" stop-color="#fff"/>
        </linearGradient>
        <linearGradient id="h" x1="108.581" y1="294.158" x2="-39.099" y2="179.044" gradientUnits="userSpaceOnUse">
            <stop stop-color="#fff" stop-opacity="0"/>
            <stop offset="1" stop-color="#fff"/>
        </linearGradient>
    </defs>
</svg>
